<svg xmlns="http://www.w3.org/2000/svg" viewBox="0 0 710.62 328.16"><defs><style>.cls-1{font-size:150px;fill:#231f20;font-family:HoboStd, Hobo Std;letter-spacing:0.01em;}.cls-2{fill:#e2e2e2;}.cls-3{fill:none;stroke:#231f20;stroke-linecap:round;stroke-linejoin:round;stroke-width:10px;}.cls-4{fill:#fff;}.cls-5{fill:#010101;}</style></defs><title>spitBoxLogo</title><g id="Layer_2" data-name="Layer 2"><g id="Layer_1-2" data-name="Layer 1"><text class="cls-1" transform="translate(0 280.91)">SPIT B---X</text><path class="cls-2" d="M490.48,276.24V174.79s30.06,16,55.42,0,55.42,1.88,55.42,1.88v99.57Z"/><polyline class="cls-3" points="490.48 157.88 490.48 276.24 601.32 276.24 601.32 157.88"/><circle cx="522.07" cy="206.38" r="13.73"/><circle class="cls-4" cx="522.07" cy="200.46" r="2.74"/><rect class="cls-4" x="519.84" y="204.47" width="4.46" height="10.65" rx="2.06"/><circle cx="569.25" cy="235.44" r="17.39"/><circle class="cls-4" cx="569.25" cy="227.93" r="3.47"/><rect class="cls-4" x="566.43" y="233.01" width="5.64" height="13.48" rx="2.6"/><circle cx="527.46" cy="247.75" r="7.98"/><circle class="cls-4" cx="527.46" cy="244.31" r="1.59"/><rect class="cls-4" x="526.17" y="246.64" width="2.59" height="6.19" rx="1.19"/><circle cx="576.48" cy="192.81" r="10.16"/><circle class="cls-4" cx="576.48" cy="188.43" r="2.03"/><rect class="cls-4" x="574.83" y="191.39" width="3.3" height="7.88" rx="1.52"/><path class="cls-2" d="M603.52,85.41l-25.84,30.08L569,125.64a2.19,2.19,0,1,0,3.38,2.75h0l9.6-14.17h0a1.55,1.55,0,0,0-.28.9,1.48,1.48,0,0,0,1.55,1.4,1.43,1.43,0,0,0,1.15-.69h0Z"/><path class="cls-2" d="M578.87,123.4,566,141h0a1.76,1.76,0,0,0-.26,1.19,1.79,1.79,0,0,0,2,1.55,1.76,1.76,0,0,0,1.42-1.21h0Z"/><path class="cls-5" d="M653.14,0,578.8,20.38l6.87,9,2.41,23.82c.24,6.45,4.31,8,4.31,8a7.26,7.26,0,0,0,6.93-.4L603.18,59l3.94,7.27s-.52,6.94-.47,7.22A4.31,4.31,0,0,0,611,77.13a3.88,3.88,0,0,0,3.6,5.79c.28,0,4.47.34,4.47.34l6.11,7.95a8.69,8.69,0,0,0,15,2.06l9.15-9.69h0s7.59-6.4,12.82,15.64c1.28,5.37,3.38,14.33,5.81,24.78l17.85-4.88L653.26.12Zm-8,69.26a10.74,10.74,0,0,1-3.37,1.59,11.86,11.86,0,0,1-6,0,15.15,15.15,0,0,1-11.18-15.82,11.25,11.25,0,0,1,4.63-8.24.62.62,0,0,1,.72,1,10,10,0,0,0-4.12,7.37A13.91,13.91,0,0,0,636.1,69.68a10.07,10.07,0,0,0,8.32-1.43.62.62,0,1,1,.71,1Z"/></g></g></svg>