<svg xmlns="http://www.w3.org/2000/svg" viewBox="0 0 714.85 328.05"><defs><style>.cls-1{font-size:150px;fill:#231f20;font-family:HoboStd, Hobo Std;letter-spacing:0.01em;}.cls-2{fill:#e2e2e2;}.cls-3{fill:none;stroke:#231f20;stroke-linecap:round;stroke-linejoin:round;stroke-width:10px;}.cls-4{fill:#fff;}.cls-5{fill:#010101;}</style></defs><title>spitBoxLogo_1</title><g id="Layer_2" data-name="Layer 2"><g id="Layer_1-2" data-name="Layer 1"><text class="cls-1" transform="translate(0 280.8)">SPIT</text><text class="cls-1" transform="translate(377.11 280.8)">B</text><text class="cls-1" transform="translate(612.27 280.8)">X</text><path class="cls-2" d="M488.33,276.24V174.79s30.06,16,55.42,0,55.42,1.88,55.42,1.88v99.57Z"/><polyline class="cls-3" points="488.33 157.88 488.33 276.24 599.17 276.24 599.17 157.88"/><circle cx="519.91" cy="206.38" r="13.73"/><circle class="cls-4" cx="519.91" cy="200.46" r="2.74"/><rect class="cls-4" x="517.69" y="204.47" width="4.46" height="10.65" rx="2.06"/><circle cx="567.09" cy="235.44" r="17.39"/><circle class="cls-4" cx="567.09" cy="227.93" r="3.47"/><rect class="cls-4" x="564.27" y="233.01" width="5.64" height="13.48" rx="2.6"/><circle cx="525.31" cy="247.75" r="7.98"/><circle class="cls-4" cx="525.31" cy="244.31" r="1.59"/><rect class="cls-4" x="524.01" y="246.64" width="2.59" height="6.19" rx="1.19"/><circle cx="574.32" cy="192.81" r="10.16"/><circle class="cls-4" cx="574.32" cy="188.43" r="2.03"/><rect class="cls-4" x="572.68" y="191.39" width="3.3" height="7.88" rx="1.52"/><path class="cls-2" d="M601.36,85.41l-25.83,30.08-8.73,10.15a2.19,2.19,0,1,0,3.39,2.75h0l9.6-14.17h0a1.42,1.42,0,0,0-.28.9,1.47,1.47,0,0,0,1.55,1.4,1.44,1.44,0,0,0,1.15-.69h0Z"/><path class="cls-2" d="M576.72,123.4,563.89,141h0a1.82,1.82,0,0,0-.27,1.19,1.79,1.79,0,0,0,2,1.55,1.76,1.76,0,0,0,1.42-1.21h0Z"/><path class="cls-5" d="M651,0,576.65,20.38l6.87,9,2.41,23.82c.24,6.45,4.31,8,4.31,8a7.27,7.27,0,0,0,6.93-.4L601,59,605,66.27s-.51,6.94-.46,7.22a4.31,4.31,0,0,0,4.37,3.64,3.88,3.88,0,0,0,3.6,5.79c.27,0,4.47.34,4.47.34l6.11,7.95a8.69,8.69,0,0,0,15,2.06l9.14-9.69h0s7.6-6.4,12.83,15.64c1.28,5.37,3.37,14.33,5.81,24.78l17.85-4.88L651.11.12Zm-8,69.26a10.74,10.74,0,0,1-3.37,1.59,11.86,11.86,0,0,1-6,0,15.17,15.17,0,0,1-11.19-15.82,11.26,11.26,0,0,1,4.64-8.24.61.61,0,1,1,.71,1,10.11,10.11,0,0,0-4.12,7.37A13.93,13.93,0,0,0,634,69.68a10.08,10.08,0,0,0,8.32-1.43.61.61,0,0,1,.86.15A.62.62,0,0,1,643,69.26Z"/></g></g></svg>